<?xml version="1.0" encoding="utf-8"?>
<!-- Generator: Adobe Illustrator 28.1.0, SVG Export Plug-In . SVG Version: 6.00 Build 0)  -->
<svg version="1.1" id="Layer_2_00000108281684294173183140000017497504470936697232_"
	 xmlns="http://www.w3.org/2000/svg" xmlns:xlink="http://www.w3.org/1999/xlink" x="0px" y="0px" viewBox="0 0 280 48"
	 style="enable-background:new 0 0 280 48;" xml:space="preserve">
<style type="text/css">
	.st0{fill:#FFFFFF;}
</style>
<g>
	<g>
		<path class="st0" d="M61.4,33.5h6.7v1.1h-5.4V37h5.3v1.1h-5.3v2.7h5.6v1.1h-6.8V33.5z"/>
		<path class="st0" d="M73.9,35.7h1.5l-2.6,2.9l2.7,3.2H74l-1.9-2.3l-1.9,2.3h-1.5l2.7-3.2l-2.5-2.9h1.6l1.7,2.1L73.9,35.7z"/>
		<path class="st0" d="M76.3,33.4h1.2v3.2h0c0.5-0.8,1.5-1.1,2.4-1.1c1.5,0,2.6,0.6,2.6,2.2v4.2h-1.2v-3.9c0-0.9-0.6-1.4-1.8-1.4
			c-1.1,0-2,0.6-2,1.8v3.5h-1.2V33.4z"/>
		<path class="st0" d="M83.8,33.4H85v1.3h-1.2V33.4z M83.8,35.7H85v6.1h-1.2V35.7z"/>
		<path class="st0" d="M86.4,33.4h1.2v3.2h0c0.5-0.7,1.4-1.1,2.3-1.1c1.8,0,3.3,1.2,3.3,3.2c0,2-1.5,3.2-3.3,3.2
			c-0.9,0-1.9-0.3-2.3-1h0v0.8h-1.2V33.4z M89.8,36.6c-1.4,0-2.3,0.8-2.3,2.2c0,1.2,0.7,2.2,2.3,2.2c1.6,0,2.2-1.1,2.2-2.2
			C92,37.4,91.1,36.6,89.8,36.6z"/>
		<path class="st0" d="M94.4,33.4h1.2v1.3h-1.2V33.4z M94.4,35.7h1.2v6.1h-1.2V35.7z"/>
		<path class="st0" d="M97.5,33.8h1.2v1.9h1.7v0.9h-1.7v3.8c0,0.5,0.3,0.7,0.9,0.7c0.3,0,0.5,0,0.8-0.1v1C100,42,99.6,42,99.1,42
			c-1.1,0-1.6-0.6-1.6-1.4v-4h-1.3v-0.9h1.3V33.8z"/>
		<path class="st0" d="M101.3,33.4h1.2v1.3h-1.2V33.4z M101.3,35.7h1.2v6.1h-1.2V35.7z"/>
		<path class="st0" d="M107.1,35.5c2.4,0,3.5,1.5,3.5,3.3c0,1.8-1.2,3.3-3.5,3.3c-2.4,0-3.5-1.5-3.5-3.3
			C103.6,37,104.7,35.5,107.1,35.5z M107.1,36.5c-1.7,0-2.3,1.2-2.3,2.3c0,1.1,0.6,2.3,2.3,2.3c1.7,0,2.3-1.2,2.3-2.3
			C109.4,37.7,108.8,36.5,107.1,36.5z"/>
		<path class="st0" d="M111.8,35.7h1.2v0.9h0c0.5-0.8,1.5-1.1,2.4-1.1c1.5,0,2.6,0.6,2.6,2.2v4.2h-1.2v-3.9c0-0.9-0.6-1.4-1.8-1.4
			c-1.1,0-2,0.6-2,1.8v3.5h-1.2V35.7z"/>
		<path class="st0" d="M125.8,40.9c-0.6,0.8-1.8,1.2-3,1.2c-2.5,0-3.3-1.4-3.3-2.5c0-1,0.6-1.9,2.2-2.5c-0.7-0.7-0.9-1.2-0.9-1.7
			c0-1.1,0.8-1.9,2.2-1.9c1.3,0,2.1,0.8,2.1,1.8c0,0.7-0.4,1.4-1.6,1.9l2.2,2c0.2-0.4,0.3-0.7,0.4-1.3h1.1c0,0.6-0.2,1.3-0.7,2
			l2,1.8h-1.6L125.8,40.9z M122.4,37.7c-1.3,0.5-1.6,1.1-1.6,1.8c0,0.7,0.5,1.5,2.1,1.5c0.8,0,1.6-0.2,2.1-0.8L122.4,37.7z
			 M122.7,36.6c0.9-0.4,1.2-0.8,1.2-1.2c0-0.5-0.4-0.9-1-0.9c-0.7,0-1.1,0.4-1.1,0.8C121.9,35.7,122.2,36.1,122.7,36.6z"/>
		<path class="st0" d="M135.8,36.5c-0.2-1.2-1.1-2.1-2.8-2.1c-2,0-3.2,1.1-3.2,3.4c0,1.6,0.8,3.2,3.1,3.2c1.5,0,2.6-0.7,2.9-2.3h1.2
			c-0.2,1.8-1.8,3.4-4.2,3.4c-2.1,0-4.4-1.2-4.4-4.4c0-2.4,1.5-4.3,4.4-4.3c1.7,0,4,0.7,4.2,3.2H135.8z"/>
		<path class="st0" d="M141.6,35.5c2.4,0,3.5,1.5,3.5,3.3c0,1.8-1.2,3.3-3.5,3.3c-2.4,0-3.5-1.5-3.5-3.3
			C138,37,139.2,35.5,141.6,35.5z M141.6,36.5c-1.7,0-2.3,1.2-2.3,2.3c0,1.1,0.6,2.3,2.3,2.3c1.7,0,2.3-1.2,2.3-2.3
			C143.9,37.7,143.3,36.5,141.6,36.5z"/>
		<path class="st0" d="M146.3,35.7h1.2v0.9h0c0.5-0.8,1.5-1.1,2.4-1.1c1.5,0,2.6,0.6,2.6,2.2v4.2h-1.2v-3.9c0-0.9-0.6-1.4-1.8-1.4
			c-1.1,0-2,0.6-2,1.8v3.5h-1.2V35.7z"/>
		<path class="st0" d="M154.2,34.8c0-1.1,0.7-1.5,1.9-1.5c0.4,0,0.7,0.1,1,0.1v0.9c-0.2,0-0.4,0-0.7,0c-0.8,0-1.1,0.1-1.1,0.6v0.8
			h1.7v0.9h-1.7v5.2h-1.2v-5.2h-1.2v-0.9h1.2V34.8z"/>
		<path class="st0" d="M158.7,39.1c0.1,1.3,1.2,1.9,2.2,1.9c0.7,0,1.6-0.2,2-1.1h1.2c-0.6,1.5-1.9,2.1-3.1,2.1
			c-2.4,0-3.5-1.5-3.5-3.3c0-1.8,1.2-3.3,3.5-3.3c1.6,0,3.3,0.9,3.3,3.5v0.2H158.7z M163,38.2c-0.2-1.1-1-1.7-2.1-1.7
			c-1.1,0-2,0.6-2.2,1.7H163z"/>
		<path class="st0" d="M165.4,35.7h1.2v1.1h0c0.5-1,1.3-1.3,2.1-1.3c0.3,0,0.4,0,0.7,0.1v1.3c-0.3-0.1-0.5-0.1-0.8-0.1
			c-1.2,0-2,0.7-2,2v3.1h-1.2V35.7z"/>
		<path class="st0" d="M171.1,39.1c0.1,1.3,1.2,1.9,2.2,1.9c0.7,0,1.6-0.2,2-1.1h1.2c-0.6,1.5-1.9,2.1-3.1,2.1
			c-2.4,0-3.5-1.5-3.5-3.3c0-1.8,1.2-3.3,3.5-3.3c1.6,0,3.3,0.9,3.3,3.5v0.2H171.1z M175.5,38.2c-0.2-1.1-1-1.7-2.1-1.7
			c-1.1,0-2,0.6-2.2,1.7H175.5z"/>
		<path class="st0" d="M177.9,35.7h1.2v0.9h0c0.5-0.8,1.5-1.1,2.4-1.1c1.5,0,2.6,0.6,2.6,2.2v4.2h-1.2v-3.9c0-0.9-0.6-1.4-1.8-1.4
			c-1.1,0-2,0.6-2,1.8v3.5h-1.2V35.7z"/>
		<path class="st0" d="M191.7,39.6c-0.5,1.8-1.6,2.4-3.2,2.4c-2.4,0-3.3-1.6-3.3-3.2c0-1.8,1.1-3.3,3.3-3.3c1.6,0,2.9,0.7,3.2,2.2
			h-1.2c-0.1-0.8-0.8-1.3-1.8-1.3c-1.5,0-2.2,1-2.2,2.3c0,1.3,0.7,2.3,2.2,2.3c1,0,1.6-0.5,1.9-1.5H191.7z"/>
		<path class="st0" d="M193.8,39.1c0.1,1.3,1.2,1.9,2.2,1.9c0.7,0,1.6-0.2,2-1.1h1.2c-0.6,1.5-1.9,2.1-3.1,2.1
			c-2.4,0-3.5-1.5-3.5-3.3c0-1.8,1.2-3.3,3.5-3.3c1.6,0,3.3,0.9,3.3,3.5v0.2H193.8z M198.2,38.2c-0.2-1.1-1-1.7-2.1-1.7
			c-1.1,0-2,0.6-2.2,1.7H198.2z"/>
	</g>
	<g>
		<path class="st0" d="M75.3,16.3c0,2.1-0.9,3-2.9,3h-7.5v0.9c0,0.6,0.3,0.9,0.9,0.9h9.4V25h-9.7c-2.8,0-4.3-1.4-4.3-4.2v-5.8
			c0-2.6,1.4-3.9,4.3-3.9h6.9c2,0,2.9,1.1,2.9,3.3V16.3z M65.8,14.7c-0.6,0-0.9,0.3-0.9,1v1h6c0.5,0,0.7-0.4,0.7-1
			c0-0.6-0.2-0.9-0.7-0.9H65.8z"/>
		<path class="st0" d="M97.4,25h-3.7v-9.4c0-0.6-0.3-0.9-0.9-0.9h-3.5V25h-3.7V14.7h-4.3V25h-3.7v-14h15.2c3.1,0,4.6,1.5,4.6,4.6V25
			z"/>
		<path class="st0" d="M114.6,20.4c0,3.1-1.5,4.6-4.6,4.6h-5.9c-3.1,0-4.6-1.5-4.6-4.6V5.8h3.7v5.2h6.7c3.1,0,4.6,1.5,4.6,4.6V20.4z
			 M103.3,14.7v5.5c0,0.6,0.3,0.9,0.9,0.9h5.9c0.6,0,0.9-0.3,0.9-0.9v-4.6c0-0.6-0.3-0.9-0.9-0.9H103.3z"/>
		<path class="st0" d="M131,16.3c0,2.1-0.9,3-2.9,3h-7.5v0.9c0,0.6,0.3,0.9,0.9,0.9h9.4V25h-9.7c-2.8,0-4.3-1.4-4.3-4.2v-5.8
			c0-2.6,1.4-3.9,4.3-3.9h6.9c2,0,2.9,1.1,2.9,3.3V16.3z M121.5,14.7c-0.6,0-0.9,0.3-0.9,1v1h6c0.5,0,0.7-0.4,0.7-1
			c0-0.6-0.2-0.9-0.7-0.9H121.5z"/>
		<path class="st0" d="M148.3,20.4c0,3.1-1.5,4.6-4.6,4.6h-5.9c-3.1,0-4.6-1.5-4.6-4.6v-4.8c0-3.1,1.5-4.6,4.6-4.6h6.7V5.8h3.7V20.4
			z M137.9,14.7c-0.6,0-0.9,0.3-0.9,0.9v4.6c0,0.6,0.3,0.9,0.9,0.9h5.9c0.6,0,0.9-0.3,0.9-0.9v-5.5H137.9z"/>
		<path class="st0" d="M165.6,20.4c0,3.1-1.5,4.6-4.6,4.6h-5.9c-3.1,0-4.6-1.5-4.6-4.6v-4.8c0-3.1,1.5-4.6,4.6-4.6h6.7V5.8h3.7V20.4
			z M155.1,14.7c-0.6,0-0.9,0.3-0.9,0.9v4.6c0,0.6,0.3,0.9,0.9,0.9h5.9c0.6,0,0.9-0.3,0.9-0.9v-5.5H155.1z"/>
		<path class="st0" d="M182,16.3c0,2.1-0.9,3-2.9,3h-7.5v0.9c0,0.6,0.3,0.9,0.9,0.9h9.4V25h-9.7c-2.8,0-4.3-1.4-4.3-4.2v-5.8
			c0-2.6,1.4-3.9,4.3-3.9h6.9c2,0,2.9,1.1,2.9,3.3V16.3z M172.4,14.7c-0.6,0-0.9,0.3-0.9,1v1h6c0.5,0,0.7-0.4,0.7-1
			c0-0.6-0.2-0.9-0.7-0.9H172.4z"/>
		<path class="st0" d="M199.2,20.4c0,3.1-1.5,4.6-4.6,4.6h-5.9c-3.1,0-4.6-1.5-4.6-4.6v-4.8c0-3.1,1.5-4.6,4.6-4.6h6.7V5.8h3.7V20.4
			z M188.8,14.7c-0.6,0-0.9,0.3-0.9,0.9v4.6c0,0.6,0.3,0.9,0.9,0.9h5.9c0.6,0,0.9-0.3,0.9-0.9v-5.5H188.8z"/>
	</g>
	<g>
		<path class="st0" d="M34.6,27.8c-0.1,0-0.3-0.1-0.4-0.2c0,0-0.1-0.1-0.1-0.1c-0.1-0.1-0.2-0.1-0.3-0.2c-0.1,0-0.1-0.1-0.2-0.1
			c-0.1-0.1-0.1-0.1-0.2-0.2c-0.1-0.1-0.1-0.1-0.2-0.2c0,0,0-0.1-0.1-0.1c0,0,0-0.1-0.1-0.1c-0.1-0.1-0.1-0.2-0.2-0.3c0,0,0,0,0-0.1
			L17.9,31c0,0.1,0.1,0.1,0.1,0.2c0.3,0.4,0.7,0.8,1.1,0.9l11.6,3.4c0.3,0.1,0.5,0.1,0.7,0l14.2-4.4L34.6,27.8z"/>
		<path class="st0" d="M17.3,29c0,0.2,0,0.5,0.1,0.7c0,0.2,0.1,0.4,0.2,0.6l15.1-4.7c0,0,0,0,0-0.1c0-0.1-0.1-0.2-0.1-0.3
			c0,0,0-0.1,0-0.1c0,0,0-0.1,0-0.1c0-0.1,0-0.1,0-0.2c0-0.2,0-0.4,0-0.5L32.3,7.5c0-0.1,0-0.3,0-0.4c0,0,0-0.1,0-0.1
			c0-0.1,0-0.2,0-0.3c0,0,0-0.1,0-0.1c0-0.1,0-0.2,0.1-0.3c0,0,0,0,0-0.1l-14.2,4.4c-0.2,0-0.3,0.1-0.4,0.2
			c-0.1,0.1-0.3,0.3-0.4,0.5c-0.2,0.4-0.3,0.8-0.3,1.3L17.3,29L17.3,29z"/>
		<path class="st0" d="M47.8,12.4c0-1.4-0.9-2.8-1.9-3.1L34.4,5.9c-0.3-0.1-0.5-0.1-0.7,0c0,0,0,0,0,0l-0.2,0
			C33.5,6,33.4,6,33.4,6.1c0,0,0,0,0,0.1c-0.1,0.1-0.1,0.2-0.1,0.3c0,0,0,0,0,0.1c0,0.1-0.1,0.3-0.1,0.4c0,0,0,0.1,0,0.1
			c0,0.1,0,0.3,0,0.5l0.2,16.8c0,0.1,0,0.3,0,0.4c0,0,0,0.1,0,0.1c0,0.1,0,0.2,0.1,0.3c0,0,0,0.1,0,0.1c0,0.1,0.1,0.2,0.1,0.3
			c0,0,0,0.1,0.1,0.1c0.1,0.1,0.1,0.2,0.2,0.4c0,0,0,0.1,0.1,0.1c0,0.1,0.1,0.2,0.2,0.2c0,0.1,0.1,0.1,0.1,0.1c0,0,0.1,0.1,0.1,0.1
			c0,0,0.1,0.1,0.1,0.1c0.1,0,0.1,0.1,0.2,0.1c0,0,0.1,0.1,0.1,0.1c0.1,0.1,0.2,0.1,0.3,0.1l11.8,3.5c0.2,0.1,0.3,0.1,0.5,0l0,0
			c0.5-0.3,0.9-1,0.9-2L47.8,12.4z"/>
	</g>
	<path class="st0" d="M43.3,33.5l-6,1.8c-2.3,3.2-5.8,5.2-10.1,5.4c-0.2,0-0.4,0-0.6,0c-8.4,0-16.4-7.2-18.1-16.4
		c-0.2-1-0.3-2-0.3-3c0-0.1,0-0.3,0-0.4c0-0.1,0-0.2,0-0.2c0-0.2,0-0.4,0-0.5c0-0.1,0-0.2,0-0.3c0-0.2,0-0.3,0.1-0.5
		c0-0.1,0-0.2,0-0.3c0-0.1,0-0.3,0.1-0.4c0-0.1,0-0.2,0.1-0.3c0-0.1,0.1-0.3,0.1-0.4c0-0.1,0-0.2,0.1-0.3c0-0.2,0.1-0.3,0.1-0.5
		c0-0.1,0-0.2,0.1-0.3c0.1-0.2,0.1-0.4,0.2-0.5c0-0.1,0-0.1,0.1-0.2c0.1-0.2,0.2-0.5,0.3-0.7c0-0.1,0-0.1,0.1-0.1
		c0.1-0.2,0.2-0.4,0.2-0.5c0-0.1,0.1-0.2,0.1-0.2c0.1-0.1,0.1-0.3,0.2-0.4c0-0.1,0.1-0.2,0.1-0.3c0.1-0.1,0.2-0.3,0.2-0.4
		c0-0.1,0.1-0.1,0.1-0.2c0.1-0.2,0.2-0.3,0.3-0.5c0,0,0-0.1,0.1-0.1c0.3-0.4,0.6-0.8,0.9-1.1c0,0,0.1-0.1,0.1-0.1
		c0.1-0.1,0.2-0.3,0.4-0.4c0.1-0.1,0.1-0.1,0.2-0.2c0.1-0.1,0.2-0.2,0.3-0.3c0.1-0.1,0.1-0.1,0.2-0.2c0.1-0.1,0.2-0.2,0.3-0.3
		c0.1-0.1,0.1-0.1,0.2-0.2c0.1-0.1,0.2-0.2,0.3-0.3c0.1-0.1,0.1-0.1,0.2-0.2c0.1-0.1,0.3-0.2,0.4-0.3c0.1,0,0.1-0.1,0.2-0.1
		C14.9,9.1,15,9,15.2,8.9c0,0,0.1-0.1,0.1-0.1c0.2-0.1,0.4-0.2,0.6-0.3c0,0,0.1,0,0.1-0.1c0.2-0.1,0.3-0.1,0.5-0.2
		c0.1,0,0.2-0.1,0.2-0.1C17,8.1,17.1,8,17.3,8c0.1,0,0.2-0.1,0.3-0.1c0.1,0,0.3-0.1,0.4-0.1c0.1,0,0.2-0.1,0.3-0.1
		c0.1,0,0.3-0.1,0.4-0.1c0.1,0,0.2,0,0.3-0.1c0.1,0,0.3-0.1,0.4-0.1c0.1,0,0.2,0,0.3,0c0.2,0,0.3,0,0.5-0.1c0.1,0,0.2,0,0.2,0
		c0.2,0,0.5,0,0.8-0.1c0.2,0,0.4,0,0.6,0c0.9,0,1.8,0.1,2.7,0.2l6.7-2V4.7C28,3,24.5,2,21,2c-0.3,0-0.5,0-0.8,0
		C10.5,2.4,3.8,10.5,4,20.7c0-0.2,0-0.3,0-0.5v0.7c0,1.4,0.1,2.8,0.4,4.2C6.4,36.8,16.6,46,27.3,46c0.3,0,0.5,0,0.8,0
		c0.4,0,0.8-0.1,1.2-0.1c0.1,0,0.2,0,0.4,0c0.3,0,0.6-0.1,0.9-0.1c0.1,0,0.2,0,0.3-0.1c0.4-0.1,0.8-0.2,1.1-0.3c0.1,0,0.1,0,0.2-0.1
		c0.3-0.1,0.6-0.2,0.9-0.3c0.1,0,0.2-0.1,0.3-0.1c0.3-0.1,0.6-0.2,0.8-0.3c0.1,0,0.2-0.1,0.2-0.1c0.3-0.2,0.7-0.3,1-0.5
		c0.1,0,0.2-0.1,0.2-0.1c0.3-0.1,0.5-0.3,0.7-0.5c0.1-0.1,0.2-0.1,0.3-0.2c0.3-0.2,0.5-0.4,0.8-0.6c0,0,0.1-0.1,0.1-0.1
		c0.3-0.2,0.6-0.5,0.8-0.7c0.1-0.1,0.2-0.1,0.2-0.2c0.2-0.2,0.4-0.4,0.6-0.6c0.1-0.1,0.2-0.2,0.2-0.2c0.3-0.3,0.5-0.6,0.7-0.8
		c0,0,0-0.1,0.1-0.1c0.2-0.2,0.3-0.4,0.5-0.7c0-0.1,0.1-0.1,0.1-0.2c0.1-0.1,0.1-0.2,0.2-0.3c0.1-0.2,0.3-0.5,0.4-0.7
		c0.1-0.1,0.1-0.2,0.2-0.3c0.2-0.3,0.3-0.6,0.5-0.9c0,0,0-0.1,0.1-0.1c0.1-0.3,0.3-0.6,0.4-0.9c0,0,0-0.1,0-0.1
		c0.2-0.4,0.4-0.9,0.5-1.4V33.5z"/>
	<g>
		<g>
			<path class="st0" d="M223.4,22.7c-0.3,1.4-1.2,2.3-2.2,2.3h-2.7c-1.3,0-2.4-0.9-2.7-2.2l-2.2-8.1h-0.8l-2.2,8.1
				c-0.4,1.3-1.4,2.2-2.7,2.2h-2.7c-1.1,0-2-0.8-2.2-2.3l-2.3-11.7h4l1.4,9.2c0.1,0.6,0.3,0.9,0.7,0.9h0.4c0.3,0,0.6-0.3,0.7-0.9
				l2.6-9.2h5.6l2.6,9.2c0.2,0.6,0.4,0.9,0.7,0.9h0.4c0.4,0,0.6-0.3,0.7-0.9l1.3-9.2h4L223.4,22.7z"/>
			<path class="st0" d="M241.6,20.5c0,3-1.5,4.5-4.6,4.5h-5.9c-3.1,0-4.6-1.5-4.6-4.6v-4.8c0-3.1,1.5-4.6,4.6-4.6h5.9
				c3.1,0,4.6,1.5,4.6,4.6V20.5z M231.2,14.7c-0.6,0-0.9,0.3-0.9,0.9v4.6c0,0.6,0.3,0.9,0.9,0.9h5.9c0.6,0,0.9-0.3,0.9-0.9v-4.7
				c0-0.6-0.3-0.9-0.9-0.9H231.2z"/>
			<path class="st0" d="M253.4,14.7h-4.9c-0.6,0-0.9,0.3-0.9,0.9V25h-3.7v-9.4c0-3.1,1.5-4.6,4.6-4.6h4.9V14.7z"/>
			<path class="st0" d="M258.8,25h-3.7V5.8h3.7V25z"/>
			<path class="st0" d="M276,20.4c0,3.1-1.5,4.6-4.6,4.6h-5.9c-3.1,0-4.6-1.5-4.6-4.6v-4.8c0-3.1,1.5-4.6,4.6-4.6h6.7V5.8h3.7V20.4z
				 M265.6,14.7c-0.6,0-0.9,0.3-0.9,0.9v4.6c0,0.6,0.3,0.9,0.9,0.9h5.9c0.6,0,0.9-0.3,0.9-0.9v-5.5H265.6z"/>
		</g>
		<g>
			<path class="st0" d="M223.4,22.7c-0.3,1.4-1.2,2.3-2.2,2.3h-2.7c-1.3,0-2.4-0.9-2.7-2.2l-2.2-8.1h-0.8l-2.2,8.1
				c-0.4,1.3-1.4,2.2-2.7,2.2h-2.7c-1.1,0-2-0.8-2.2-2.3l-2.3-11.7h4l1.4,9.2c0.1,0.6,0.3,0.9,0.7,0.9h0.4c0.3,0,0.6-0.3,0.7-0.9
				l2.6-9.2h5.6l2.6,9.2c0.2,0.6,0.4,0.9,0.7,0.9h0.4c0.4,0,0.6-0.3,0.7-0.9l1.3-9.2h4L223.4,22.7z"/>
			<path class="st0" d="M241.6,20.5c0,3-1.5,4.5-4.6,4.5h-5.9c-3.1,0-4.6-1.5-4.6-4.6v-4.8c0-3.1,1.5-4.6,4.6-4.6h5.9
				c3.1,0,4.6,1.5,4.6,4.6V20.5z M231.2,14.7c-0.6,0-0.9,0.3-0.9,0.9v4.6c0,0.6,0.3,0.9,0.9,0.9h5.9c0.6,0,0.9-0.3,0.9-0.9v-4.7
				c0-0.6-0.3-0.9-0.9-0.9H231.2z"/>
			<path class="st0" d="M253.4,14.7h-4.9c-0.6,0-0.9,0.3-0.9,0.9V25h-3.7v-9.4c0-3.1,1.5-4.6,4.6-4.6h4.9V14.7z"/>
			<path class="st0" d="M258.8,25h-3.7V5.8h3.7V25z"/>
			<path class="st0" d="M276,20.4c0,3.1-1.5,4.6-4.6,4.6h-5.9c-3.1,0-4.6-1.5-4.6-4.6v-4.8c0-3.1,1.5-4.6,4.6-4.6h6.7V5.8h3.7V20.4z
				 M265.6,14.7c-0.6,0-0.9,0.3-0.9,0.9v4.6c0,0.6,0.3,0.9,0.9,0.9h5.9c0.6,0,0.9-0.3,0.9-0.9v-5.5H265.6z"/>
		</g>
	</g>
</g>
</svg>
