<?xml version="1.0" encoding="UTF-8"?><svg id="PRODUCTS" xmlns="http://www.w3.org/2000/svg" xmlns:xlink="http://www.w3.org/1999/xlink" viewBox="0 0 128 128"><defs><style>.cls-1{fill:url(#linear-gradient);}.cls-2{fill:url(#linear-gradient-3);}.cls-3{fill:url(#linear-gradient-4);}.cls-4{fill:url(#linear-gradient-2);}.cls-5{fill:url(#linear-gradient-6);}.cls-6{fill:url(#linear-gradient-5);}</style><linearGradient id="linear-gradient" x1="86.64" y1="41.59" x2="81.11" y2="106.82" gradientUnits="userSpaceOnUse"><stop offset="0" stop-color="#fff"/><stop offset="1" stop-color="#92cfff"/></linearGradient><linearGradient id="linear-gradient-2" x1="100.82" y1="42.79" x2="95.29" y2="108.02" xlink:href="#linear-gradient"/><linearGradient id="linear-gradient-3" x1="57.47" y1="39.12" x2="51.94" y2="104.35" xlink:href="#linear-gradient"/><linearGradient id="linear-gradient-4" x1="71.65" y1="40.32" x2="66.12" y2="105.55" xlink:href="#linear-gradient"/><linearGradient id="linear-gradient-5" x1="28.3" y1="36.65" x2="22.77" y2="101.88" xlink:href="#linear-gradient"/><linearGradient id="linear-gradient-6" x1="42.48" y1="37.85" x2="36.95" y2="103.08" xlink:href="#linear-gradient"/></defs><polygon class="cls-1" points="89.41 97.48 79.71 92.7 79.71 34.71 89.41 30.52 89.41 97.48"/><path class="cls-4" d="M91.4,30.52V97.48l15.65-4.78V34.71l-15.65-4.19Zm7.9,55.88c-2.05,.18-3.71-1.15-3.71-2.98s1.66-3.45,3.71-3.64c2.05-.18,3.71,1.15,3.71,2.98s-1.66,3.45-3.71,3.64Zm5.49-25.45l-11.13,.53v-5.4l11.13,.06v4.81Zm0-6.96l-11.13-.33v-5.4l11.13,.92v4.81Zm0-6.96l-11.13-1.19v-5.4l11.13,1.78v4.81Z"/><polygon class="cls-2" points="60.03 97.48 50.33 92.7 50.33 34.71 60.03 30.52 60.03 97.48"/><path class="cls-3" d="M62.02,30.52V97.48l15.65-4.78V34.71l-15.65-4.19Zm7.9,55.88c-2.05,.18-3.71-1.15-3.71-2.98s1.66-3.45,3.71-3.64c2.05-.18,3.71,1.15,3.71,2.98s-1.66,3.45-3.71,3.64Zm5.49-25.45l-11.13,.53v-5.4l11.13,.06v4.81Zm0-6.96l-11.13-.33v-5.4l11.13,.92v4.81Zm0-6.96l-11.13-1.19v-5.4l11.13,1.78v4.81Z"/><polygon class="cls-6" points="30.65 97.48 20.95 92.7 20.95 34.71 30.65 30.52 30.65 97.48"/><path class="cls-5" d="M32.64,30.52V97.48l15.65-4.78V34.71l-15.65-4.19Zm7.9,55.88c-2.05,.18-3.71-1.15-3.71-2.98s1.66-3.45,3.71-3.64c2.05-.18,3.71,1.15,3.71,2.98s-1.66,3.45-3.71,3.64Zm5.49-25.45l-11.13,.53v-5.4l11.13,.06v4.81Zm0-6.96l-11.13-.33v-5.4l11.13,.92v4.81Zm0-6.96l-11.13-1.19v-5.4l11.13,1.78v4.81Z"/></svg>