<?xml version="1.0" encoding="UTF-8"?><svg id="PRODUCTS" xmlns="http://www.w3.org/2000/svg" xmlns:xlink="http://www.w3.org/1999/xlink" viewBox="0 0 128 128"><defs><style>.cls-1{fill:url(#linear-gradient);}.cls-2{fill:url(#linear-gradient-3);}.cls-3{fill:url(#linear-gradient-4);}.cls-4{fill:url(#linear-gradient-2);}.cls-5{fill:url(#linear-gradient-6);}.cls-6{fill:url(#linear-gradient-5);}</style><linearGradient id="linear-gradient" x1="117.16" y1="71.26" x2="61.18" y2="119.24" gradientUnits="userSpaceOnUse"><stop offset="0" stop-color="#fff"/><stop offset="1" stop-color="#92cfff"/></linearGradient><linearGradient id="linear-gradient-2" x1="105.11" y1="57.21" x2="49.14" y2="105.19" xlink:href="#linear-gradient"/><linearGradient id="linear-gradient-3" x1="105.11" y1="57.21" x2="49.14" y2="105.19" xlink:href="#linear-gradient"/><linearGradient id="linear-gradient-4" x1="105.11" y1="57.21" x2="49.14" y2="105.19" xlink:href="#linear-gradient"/><linearGradient id="linear-gradient-5" x1="103.98" y1="55.89" x2="48" y2="103.87" xlink:href="#linear-gradient"/><linearGradient id="linear-gradient-6" x1="82.34" y1="30.64" x2="26.36" y2="78.62" xlink:href="#linear-gradient"/></defs><path class="cls-1" d="M104.73,87.72l-1.28-.35c-.06-.5-.18-1-.38-1.49l.97-.92c.15-.14,.17-.39,.05-.55l-1.15-1.54c-.12-.16-.36-.21-.54-.11l-1.15,.66c-.41-.32-.85-.59-1.32-.79l.04-1.33c0-.2-.15-.39-.36-.42l-1.9-.28c-.2-.03-.41,.11-.46,.3l-.35,1.28c-.5,.06-1,.18-1.49,.38l-.91-.97c-.14-.15-.39-.17-.55-.05l-1.54,1.15c-.16,.12-.21,.37-.11,.54l.66,1.15c-.32,.41-.59,.85-.79,1.32l-1.33-.03c-.2,0-.39,.15-.42,.36l-.28,1.91c-.03,.2,.11,.41,.3,.46l1.28,.35c.06,.51,.18,1.01,.38,1.49l-.96,.91c-.15,.14-.17,.39-.05,.55l1.15,1.54c.12,.16,.36,.21,.54,.11l1.15-.66c.41,.32,.85,.59,1.32,.79l-.03,1.33c0,.2,.15,.39,.36,.42l1.9,.28c.2,.03,.41-.11,.46-.3l.35-1.28c.51-.06,1.01-.18,1.49-.38l.91,.96c.14,.15,.39,.17,.55,.05l1.54-1.15c.16-.12,.21-.37,.11-.54l-.66-1.15c.32-.41,.59-.85,.79-1.32l1.33,.04c.2,0,.39-.16,.42-.36l.28-1.9c.03-.2-.11-.41-.3-.46Zm-5.49,2.57c-1.23,.92-2.98,.66-3.89-.57-.92-1.23-.66-2.98,.57-3.89,1.23-.92,2.98-.66,3.89,.57,.92,1.23,.66,2.98-.57,3.89Z"/><path class="cls-4" d="M76.71,77.68c-2.14,0-3.87,1.73-3.87,3.87s1.73,3.87,3.87,3.87,3.87-1.73,3.87-3.87-1.73-3.87-3.87-3.87Z"/><path class="cls-2" d="M86.95,87.45c.51-.88,.9-1.83,1.17-2.83l2.64-.32c.4-.05,.73-.42,.73-.83v-3.84c0-.41-.33-.78-.73-.83l-2.64-.32c-.27-1.01-.66-1.96-1.17-2.84l1.64-2.08c.25-.32,.22-.82-.07-1.1l-2.72-2.72c-.29-.29-.78-.32-1.1-.07l-2.09,1.64c-.88-.51-1.83-.9-2.83-1.17l-.32-2.64c-.05-.4-.42-.73-.83-.73h-3.84c-.41,0-.78,.33-.83,.73l-.32,2.64c-1.01,.27-1.96,.66-2.83,1.17l-2.09-1.64c-.32-.25-.82-.22-1.1,.07l-2.72,2.72c-.29,.29-.32,.78-.06,1.1l1.64,2.08c-.51,.88-.9,1.83-1.17,2.84l-2.64,.32c-.4,.05-.73,.42-.73,.83v3.84c0,.41,.33,.78,.73,.83l2.64,.32c.27,1,.66,1.95,1.17,2.83l-1.64,2.09c-.25,.32-.22,.82,.07,1.1l2.71,2.72c.29,.29,.78,.32,1.1,.07l2.09-1.64c.88,.51,1.83,.9,2.83,1.17l.32,2.64c.05,.4,.42,.73,.83,.73h3.84c.41,0,.78-.33,.83-.73l.32-2.64c1-.27,1.96-.66,2.83-1.17l2.09,1.64c.32,.25,.82,.22,1.1-.07l2.72-2.72c.29-.29,.32-.78,.06-1.1l-1.64-2.08Zm-10.23-.34c-3.07,0-5.56-2.49-5.56-5.56s2.49-5.56,5.56-5.56,5.56,2.49,5.56,5.56-2.49,5.56-5.56,5.56Z"/><path class="cls-3" d="M86.95,87.45c.51-.88,.9-1.83,1.17-2.83l2.64-.32c.4-.05,.73-.42,.73-.83v-3.84c0-.41-.33-.78-.73-.83l-2.64-.32c-.27-1.01-.66-1.96-1.17-2.84l1.64-2.08c.25-.32,.22-.82-.07-1.1l-2.72-2.72c-.29-.29-.78-.32-1.1-.07l-2.09,1.64c-.88-.51-1.83-.9-2.83-1.17l-.32-2.64c-.05-.4-.42-.73-.83-.73h-3.84c-.41,0-.78,.33-.83,.73l-.32,2.64c-1.01,.27-1.96,.66-2.83,1.17l-2.09-1.64c-.32-.25-.82-.22-1.1,.07l-2.72,2.72c-.29,.29-.32,.78-.06,1.1l1.64,2.08c-.51,.88-.9,1.83-1.17,2.84l-2.64,.32c-.4,.05-.73,.42-.73,.83v3.84c0,.41,.33,.78,.73,.83l2.64,.32c.27,1,.66,1.95,1.17,2.83l-1.64,2.09c-.25,.32-.22,.82,.07,1.1l2.71,2.72c.29,.29,.78,.32,1.1,.07l2.09-1.64c.88,.51,1.83,.9,2.83,1.17l.32,2.64c.05,.4,.42,.73,.83,.73h3.84c.41,0,.78-.33,.83-.73l.32-2.64c1-.27,1.96-.66,2.83-1.17l2.09,1.64c.32,.25,.82,.22,1.1-.07l2.72-2.72c.29-.29,.32-.78,.06-1.1l-1.64-2.08Zm-10.23-.34c-3.07,0-5.56-2.49-5.56-5.56s2.49-5.56,5.56-5.56,5.56,2.49,5.56,5.56-2.49,5.56-5.56,5.56Z"/><g><path class="cls-6" d="M72.75,81.55c0,1.15,.5,2.19,1.29,2.92v-5.83c-.79,.73-1.29,1.76-1.29,2.92Z"/><path class="cls-5" d="M63.78,91.77c-.85-.85-.94-2.26-.2-3.21l1.01-1.28c-.18-.39-.35-.79-.49-1.2l-1.61-.19c-.68-.08-1.28-.46-1.67-1v2.99h-6.19v-6.19h5.72v-2.06c0-.11,.01-.22,.03-.33h-5.75v-6.19h6.19v5.11c.39-.53,.99-.91,1.67-.99l1.61-.19c.15-.41,.31-.81,.49-1.2l-1-1.27c-.75-.96-.66-2.37,.19-3.22l.62-.62h-.63v-6.19h6.19v4.09l1.03,.81c.39-.18,.79-.35,1.2-.49l.19-1.61c.11-.94,.79-1.72,1.66-2.01v-29.63H22.96v56.42h41.15l-.34-.34Zm-.01-52.99h6.19v6.19h-6.19v-6.19Zm0,8.58h6.19v6.19h-6.19v-6.19Zm0,8.58h6.19v6.19h-6.19v-6.19Zm-9.15-17.17h6.19v6.19h-6.19v-6.19Zm0,8.58h6.19v6.19h-6.19v-6.19Zm0,8.58h6.19v6.19h-6.19v-6.19Zm0,8.58h6.19v6.19h-6.19v-6.19Zm-18.29-25.75h6.19v6.19h-6.19v-6.19Zm0,8.58h6.19v6.19h-6.19v-6.19Zm-9.15-8.58h6.19v6.19h-6.19v-6.19Zm0,8.58h6.19v6.19h-6.19v-6.19Zm0,17.17h6.19v6.19h-6.19v-6.19Zm0,8.58h6.19v6.19h-6.19v-6.19Zm24.48,14.77H27.19v-6.19h24.48v6.19Zm-9.15-14.77v6.19h-6.19v-6.19h6.19Zm-6.19-2.39v-6.19h6.19v6.19h-6.19Zm15.34,8.58h-6.19v-6.19h6.19v6.19Zm0-8.58h-6.19v-6.19h6.19v6.19Zm0-8.58H27.19v-6.19h24.48v6.19Zm0-8.58h-6.19v-6.19h6.19v6.19Zm0-8.58h-6.19v-6.19h6.19v6.19Z"/></g></svg>