<?xml version="1.0" encoding="UTF-8"?><svg id="PRODUCTS" xmlns="http://www.w3.org/2000/svg" xmlns:xlink="http://www.w3.org/1999/xlink" viewBox="0 0 128 128"><defs><style>.cls-1{fill:url(#linear-gradient);}.cls-2{fill:url(#linear-gradient-8);}.cls-3{fill:url(#linear-gradient-9);}.cls-4{fill:url(#linear-gradient-3);}.cls-5{fill:url(#linear-gradient-4);}.cls-6{fill:url(#linear-gradient-2);}.cls-7{fill:url(#linear-gradient-6);}.cls-8{fill:url(#linear-gradient-7);}.cls-9{fill:url(#linear-gradient-5);}.cls-10{fill:url(#linear-gradient-14);}.cls-11{fill:url(#linear-gradient-18);}.cls-12{fill:url(#linear-gradient-22);}.cls-13{fill:url(#linear-gradient-20);}.cls-14{fill:url(#linear-gradient-21);}.cls-15{fill:url(#linear-gradient-23);}.cls-16{fill:url(#linear-gradient-15);}.cls-17{fill:url(#linear-gradient-19);}.cls-18{fill:url(#linear-gradient-16);}.cls-19{fill:url(#linear-gradient-17);}.cls-20{fill:url(#linear-gradient-13);}.cls-21{fill:url(#linear-gradient-12);}.cls-22{fill:url(#linear-gradient-10);}.cls-23{fill:url(#linear-gradient-11);}.cls-24{fill:url(#linear-gradient-24);}</style><linearGradient id="linear-gradient" x1="19.14" y1="37.4" x2="90.88" y2="105.05" gradientUnits="userSpaceOnUse"><stop offset="0" stop-color="#fff"/><stop offset="1" stop-color="#92cfff"/></linearGradient><linearGradient id="linear-gradient-2" x1="11.14" y1="45.88" x2="82.88" y2="113.53" xlink:href="#linear-gradient"/><linearGradient id="linear-gradient-3" x1="40.42" y1="14.83" x2="112.16" y2="82.47" xlink:href="#linear-gradient"/><linearGradient id="linear-gradient-4" x1="42.04" y1="13.12" x2="113.78" y2="80.76" xlink:href="#linear-gradient"/><linearGradient id="linear-gradient-5" x1="48.54" y1="6.22" x2="120.28" y2="73.86" xlink:href="#linear-gradient"/><linearGradient id="linear-gradient-6" x1="55.04" y1="-.68" x2="126.78" y2="66.97" xlink:href="#linear-gradient"/><linearGradient id="linear-gradient-7" x1="51.79" y1="2.77" x2="123.53" y2="70.41" xlink:href="#linear-gradient"/><linearGradient id="linear-gradient-8" x1="45.29" y1="9.67" x2="117.03" y2="77.31" xlink:href="#linear-gradient"/><linearGradient id="linear-gradient-9" x1="51.94" y1="2.61" x2="123.68" y2="70.25" gradientTransform="translate(51.84 139.82) rotate(-90)" xlink:href="#linear-gradient"/><linearGradient id="linear-gradient-10" x1="45.05" y1="9.92" x2="116.79" y2="77.56" gradientTransform="translate(38.03 153.63) rotate(-90)" xlink:href="#linear-gradient"/><linearGradient id="linear-gradient-11" x1="48.49" y1="6.27" x2="120.24" y2="73.91" gradientTransform="translate(44.93 146.72) rotate(-90)" xlink:href="#linear-gradient"/><linearGradient id="linear-gradient-12" x1="55.39" y1="-1.05" x2="127.13" y2="66.59" gradientTransform="translate(58.75 132.91) rotate(-90)" xlink:href="#linear-gradient"/><linearGradient id="linear-gradient-13" x1="32.91" y1="22.79" x2="104.65" y2="90.44" gradientTransform="translate(11.4 99.38) rotate(-90)" xlink:href="#linear-gradient"/><linearGradient id="linear-gradient-14" x1="26.02" y1="30.11" x2="97.76" y2="97.75" gradientTransform="translate(-2.41 113.19) rotate(-90)" xlink:href="#linear-gradient"/><linearGradient id="linear-gradient-15" x1="29.46" y1="26.45" x2="101.2" y2="94.09" gradientTransform="translate(4.49 106.28) rotate(-90)" xlink:href="#linear-gradient"/><linearGradient id="linear-gradient-16" x1="36.36" y1="19.14" x2="108.1" y2="86.78" gradientTransform="translate(18.31 92.47) rotate(-90)" xlink:href="#linear-gradient"/><linearGradient id="linear-gradient-17" x1="25.8" y1="30.34" x2="97.54" y2="97.98" xlink:href="#linear-gradient"/><linearGradient id="linear-gradient-18" x1="32.3" y1="23.44" x2="104.04" y2="91.08" xlink:href="#linear-gradient"/><linearGradient id="linear-gradient-19" x1="38.8" y1="16.54" x2="110.54" y2="84.19" xlink:href="#linear-gradient"/><linearGradient id="linear-gradient-20" x1="35.55" y1="19.99" x2="107.29" y2="87.63" xlink:href="#linear-gradient"/><linearGradient id="linear-gradient-21" x1="29.05" y1="26.89" x2="100.79" y2="94.53" xlink:href="#linear-gradient"/><linearGradient id="linear-gradient-22" x1="36.19" y1="19.32" x2="107.93" y2="86.96" xlink:href="#linear-gradient"/><linearGradient id="linear-gradient-23" x1="39.98" y1="15.3" x2="111.72" y2="82.94" xlink:href="#linear-gradient"/><linearGradient id="linear-gradient-24" x1="44.73" y1="10.26" x2="116.47" y2="77.9" xlink:href="#linear-gradient"/></defs><path class="cls-1" d="M83.93,69.33v7.95H35.7V41.33h13.92v-5.03H30.95v46.01h26.06v8.39h5.98v-8.39h25.71v-13.11l-4.76,.12Z"/><path class="cls-6" d="M75.48,91.78c0,3.14-7.02,5.7-15.66,5.7s-15.67-2.55-15.67-5.7,7.02-5.69,15.67-5.69,15.66,2.55,15.66,5.69"/><g><g><path class="cls-4" d="M58.12,34.19v27.63h34.98v-27.63H58.12Zm32.53,25.05h-30.08v-22.47h30.08v22.47Z"/><rect class="cls-5" x="60.57" y="30.52" width="2.45" height="2.45"/><rect class="cls-9" x="74.39" y="30.52" width="2.45" height="2.45"/><rect class="cls-7" x="88.2" y="30.52" width="2.45" height="2.45"/><rect class="cls-8" x="81.29" y="30.52" width="2.45" height="2.45"/><rect class="cls-2" x="67.48" y="30.52" width="2.45" height="2.45"/><rect class="cls-3" x="94.61" y="42.76" width="2.45" height="2.45" transform="translate(139.82 -51.84) rotate(90)"/><rect class="cls-22" x="94.61" y="56.58" width="2.45" height="2.45" transform="translate(153.63 -38.03) rotate(90)"/><rect class="cls-23" x="94.61" y="49.67" width="2.45" height="2.45" transform="translate(146.72 -44.93) rotate(90)"/><rect class="cls-21" x="94.61" y="35.86" width="2.45" height="2.45" transform="translate(132.91 -58.75) rotate(90)"/><rect class="cls-20" x="54.17" y="42.76" width="2.45" height="2.45" transform="translate(99.38 -11.4) rotate(90)"/><rect class="cls-10" x="54.17" y="56.58" width="2.45" height="2.45" transform="translate(113.19 2.41) rotate(90)"/><rect class="cls-16" x="54.17" y="49.67" width="2.45" height="2.45" transform="translate(106.28 -4.49) rotate(90)"/><rect class="cls-18" x="54.17" y="35.86" width="2.45" height="2.45" transform="translate(92.47 -18.31) rotate(90)"/><rect class="cls-19" x="60.57" y="63.05" width="2.45" height="2.45"/><rect class="cls-11" x="74.39" y="63.05" width="2.45" height="2.45"/><rect class="cls-17" x="88.2" y="63.05" width="2.45" height="2.45"/><rect class="cls-13" x="81.29" y="63.05" width="2.45" height="2.45"/><rect class="cls-14" x="67.48" y="63.05" width="2.45" height="2.45"/></g><g><path class="cls-12" d="M67.87,50.27v-1.67h3.83v3.42c-.73,.5-1.38,.84-1.95,1.02-.56,.18-1.23,.27-2.01,.27-.95,0-1.73-.16-2.33-.49s-1.07-.81-1.4-1.45-.5-1.38-.5-2.21c0-.88,.18-1.64,.54-2.28,.36-.65,.89-1.14,1.59-1.48,.54-.26,1.27-.39,2.19-.39s1.55,.08,1.99,.24c.44,.16,.8,.41,1.09,.75s.51,.77,.65,1.28l-2.39,.43c-.1-.3-.26-.53-.5-.7-.24-.16-.54-.24-.9-.24-.54,0-.98,.19-1.3,.57-.32,.38-.48,.98-.48,1.79,0,.87,.16,1.49,.49,1.86,.33,.37,.78,.56,1.37,.56,.28,0,.54-.04,.79-.12,.25-.08,.54-.22,.86-.41v-.76h-1.66Z"/><path class="cls-15" d="M73.16,45.15h4.12c.9,0,1.57,.21,2.02,.64,.45,.43,.67,1.03,.67,1.82s-.24,1.44-.73,1.9c-.49,.46-1.23,.68-2.23,.68h-1.36v2.98h-2.49v-8.02Zm2.49,3.42h.61c.48,0,.81-.08,1.01-.25,.19-.17,.29-.38,.29-.64s-.08-.46-.25-.64c-.17-.18-.48-.26-.95-.26h-.71v1.79Z"/><path class="cls-24" d="M86.49,45.15h2.47v4.78c0,.47-.07,.92-.22,1.34s-.38,.79-.69,1.1c-.32,.32-.65,.54-.99,.66-.48,.18-1.06,.27-1.74,.27-.39,0-.82-.03-1.28-.08-.46-.05-.85-.16-1.16-.33s-.59-.39-.85-.69c-.26-.3-.43-.61-.53-.92-.15-.51-.23-.96-.23-1.36v-4.78h2.47v4.89c0,.44,.12,.78,.36,1.03s.58,.37,1.01,.37,.76-.12,1-.36c.24-.24,.36-.59,.36-1.03v-4.89Z"/></g></g></svg>