<?xml version="1.0" encoding="UTF-8"?><svg id="PRODUCTS" xmlns="http://www.w3.org/2000/svg" xmlns:xlink="http://www.w3.org/1999/xlink" viewBox="0 0 128 128"><defs><style>.cls-1{fill:url(#linear-gradient);}.cls-2{fill:url(#linear-gradient-8);}.cls-3{fill:url(#linear-gradient-9);}.cls-4{fill:url(#linear-gradient-3);}.cls-5{fill:url(#linear-gradient-4);}.cls-6{fill:url(#linear-gradient-2);}.cls-7{fill:url(#linear-gradient-6);}.cls-8{fill:url(#linear-gradient-7);}.cls-9{fill:url(#linear-gradient-5);}</style><linearGradient id="linear-gradient" x1="103.01" y1="51.49" x2="-6.52" y2="74.44" gradientUnits="userSpaceOnUse"><stop offset="0" stop-color="#fff"/><stop offset="1" stop-color="#92cfff"/></linearGradient><linearGradient id="linear-gradient-2" x1="106.47" y1="68" x2="-3.06" y2="90.95" xlink:href="#linear-gradient"/><linearGradient id="linear-gradient-3" x1="104.42" y1="58.23" x2="-5.1" y2="81.18" xlink:href="#linear-gradient"/><linearGradient id="linear-gradient-4" x1="103.51" y1="53.87" x2="-6.02" y2="76.82" xlink:href="#linear-gradient"/><linearGradient id="linear-gradient-5" x1="108.5" y1="77.68" x2="-1.03" y2="100.63" xlink:href="#linear-gradient"/><linearGradient id="linear-gradient-6" x1="109.62" y1="83.06" x2=".1" y2="106" xlink:href="#linear-gradient"/><linearGradient id="linear-gradient-7" x1="106.76" y1="69.41" x2="-2.76" y2="92.36" xlink:href="#linear-gradient"/><linearGradient id="linear-gradient-8" x1="108.22" y1="76.36" x2="-1.31" y2="99.3" xlink:href="#linear-gradient"/><linearGradient id="linear-gradient-9" x1="105.36" y1="62.7" x2="-4.17" y2="85.65" xlink:href="#linear-gradient"/></defs><path class="cls-1" d="M70.27,56.33h-2.52l-1.58-13.3c-.26-2.18-2.24-3.88-4.51-3.88H21.89c-2.27,0-4.25,1.7-4.51,3.88l-1.58,13.3h-2.52c-1.61,0-2.92,1.31-2.92,2.92v15.71c0,1.61,1.31,2.92,2.92,2.92h3.29v8.04c0,1.61,1.31,2.92,2.92,2.92h3.04c1.61,0,2.92-1.31,2.92-2.92v-8.04H58.95v8.04c0,1.61,1.31,2.92,2.92,2.92h3.04c1.61,0,2.92-1.31,2.92-2.92v-8.04h2.44c1.61,0,2.92-1.31,2.92-2.92v-15.71c0-1.61-1.31-2.92-2.92-2.92Zm-50.06-12.96c.09-.74,.86-1.36,1.68-1.36H61.66c.82,0,1.59,.62,1.68,1.36l1.54,12.96H18.67l1.54-12.96Zm1.17,27.82c-2.39,0-4.32-1.94-4.32-4.32s1.94-4.32,4.32-4.32,4.32,1.94,4.32,4.32-1.94,4.32-4.32,4.32Zm26.85,0h-12.66c-2.39,0-4.32-1.94-4.32-4.32s1.94-4.32,4.32-4.32h12.66c2.39,0,4.32,1.94,4.32,4.32s-1.94,4.32-4.32,4.32Zm14.19,0c-2.39,0-4.32-1.94-4.32-4.32s1.94-4.32,4.32-4.32,4.32,1.94,4.32,4.32-1.94,4.32-4.32,4.32Z"/><path class="cls-6" d="M101.33,66.16c-2.24,0-4.06,1.31-4.06,2.92s1.82,2.92,4.06,2.92,4.06-1.31,4.06-2.92-1.82-2.92-4.06-2.92Zm0,4.08c-1.17,0-2.11-.68-2.11-1.52s.95-1.52,2.11-1.52,2.11,.68,2.11,1.52-.95,1.52-2.11,1.52Z"/><path class="cls-4" d="M107.72,54.32c0-3.53-2.86-6.39-6.39-6.39s-6.39,2.86-6.39,6.39c0,1.28,.38,2.46,1.02,3.46h-.11l5.43,12.19,5.43-12.19h0c.64-1,1.02-2.18,1.02-3.46Zm-6.39,3.96c-2.19,0-3.97-1.78-3.97-3.96s1.78-3.97,3.97-3.97,3.96,1.78,3.96,3.97-1.77,3.96-3.96,3.96Z"/><path class="cls-5" d="M103.59,54.32c0,1.25-1.01,2.26-2.26,2.26s-2.26-1.01-2.26-2.26,1.01-2.26,2.26-2.26,2.26,1.01,2.26,2.26Z"/><g><path class="cls-9" d="M104.76,77.26h-26.81l-2.57,10.25h18.8c1.67-2.24,5.14-6.37,10.57-10.25Z"/><path class="cls-7" d="M96.52,87.51h21.12l-2.57-10.25h-7.01c-5.62,3.58-9.44,7.66-11.54,10.25Z"/><path class="cls-8" d="M112.84,68.33h-4.88c.12,.36,.18,.73,.18,1.11,0,2.71-3.05,4.91-6.82,4.91s-6.82-2.2-6.82-4.91c0-.38,.07-.76,.18-1.11h-14.51l-1.95,7.8h28.17c2.18-1.43,4.64-2.8,7.39-3.99l-.95-3.81Z"/><path class="cls-2" d="M114.79,76.13l-.55-2.19c-1.53,.68-2.97,1.42-4.32,2.19h4.87Z"/><path class="cls-3" d="M101.33,64.54c2.78,0,5.17,1.2,6.23,2.92h5.06l-1.54-6.14h-29.15s-1.54,6.14-1.54,6.14h14.69c1.06-1.72,3.45-2.92,6.23-2.92Z"/></g></svg>